<svg width="23" height="22" viewBox="0 0 23 22" fill="none" xmlns="http://www.w3.org/2000/svg">
<path d="M1.39848 5.13661C-0.551229 7.93895 -0.308516 11.5848 1.18089 14.5623C1.2163 14.6337 1.25342 14.704 1.28997 14.7742C1.31339 14.8188 1.33537 14.8644 1.35964 14.9084C1.37336 14.9347 1.38877 14.9604 1.40305 14.9855C1.42846 15.0329 1.45444 15.078 1.48071 15.1243C1.52697 15.206 1.57437 15.2871 1.62291 15.3682C1.64976 15.4127 1.67631 15.4572 1.70401 15.5018C1.75769 15.5886 1.8128 15.6743 1.86905 15.7599C1.89247 15.7965 1.91531 15.833 1.9393 15.8684C2.01697 15.9844 2.09635 16.0997 2.17829 16.2134C2.18033 16.2163 2.18256 16.2196 2.18513 16.2225C2.198 16.2407 2.21227 16.2585 2.2254 16.2767C2.29621 16.3744 2.36931 16.4709 2.44327 16.5663C2.4704 16.6011 2.4978 16.6359 2.52522 16.6708C2.59118 16.7536 2.65828 16.8358 2.72653 16.9181C2.75194 16.9489 2.77764 16.9797 2.80334 17.01C2.895 17.1179 2.98837 17.2253 3.08373 17.3304C3.08549 17.332 3.08774 17.3344 3.08944 17.3361C3.09344 17.3406 3.09686 17.3435 3.10028 17.3481C3.19337 17.4497 3.28874 17.5491 3.38526 17.6485C3.41524 17.6793 3.4458 17.7101 3.47664 17.7404C3.55145 17.8158 3.6274 17.89 3.70422 17.9637C3.73534 17.9934 3.76618 18.0237 3.7973 18.0522C3.89981 18.1487 4.00347 18.2435 4.10912 18.3361C4.11087 18.3377 4.11224 18.339 4.11397 18.3401C4.13195 18.3561 4.15052 18.3709 4.16823 18.3863C4.26131 18.4668 4.35611 18.5468 4.45148 18.6256C4.49031 18.657 4.52972 18.6879 4.56884 18.7193C4.64679 18.7815 4.7256 18.8432 4.80498 18.9037C4.84695 18.9357 4.88893 18.9677 4.93119 18.9997C5.01885 19.0642 5.10708 19.1276 5.19617 19.1899C5.22872 19.2133 5.26013 19.2361 5.29268 19.2584C5.30181 19.2647 5.31011 19.2709 5.31923 19.2772C5.40376 19.3355 5.49027 19.3914 5.57652 19.4474C5.61364 19.472 5.65048 19.4977 5.68788 19.5217C5.82038 19.6056 5.95488 19.6884 6.09078 19.7684C6.12762 19.7895 6.16503 19.8101 6.20214 19.8312C6.30208 19.8889 6.4026 19.9454 6.50453 20.0008C6.55964 20.0305 6.61618 20.0585 6.67186 20.087C6.74382 20.1247 6.8152 20.163 6.8883 20.1995C6.90485 20.2076 6.922 20.2155 6.93827 20.2235C6.96768 20.2378 6.99738 20.2515 7.02679 20.2664C7.14015 20.3206 7.25437 20.3737 7.36974 20.4251C7.3943 20.436 7.418 20.4468 7.44227 20.4577C7.57447 20.5153 7.70781 20.5707 7.84231 20.6239C7.87458 20.637 7.90713 20.6496 7.93969 20.6621C8.06418 20.7101 8.1904 20.7575 8.31718 20.802C8.33318 20.8077 8.34859 20.8129 8.36458 20.8186C8.50364 20.8671 8.64414 20.9122 8.78547 20.9562C8.81917 20.9659 8.85314 20.9768 8.88712 20.9865C9.03104 21.0299 9.17325 21.0818 9.32172 21.1093C18.751 22.8288 21.4899 15.4428 21.4899 15.4428C19.1896 18.4398 15.1063 19.2302 11.2375 18.3502C11.091 18.3171 10.9488 18.2714 10.8058 18.2291C10.7695 18.2183 10.7338 18.2074 10.6981 18.1966C10.5585 18.1537 10.42 18.1086 10.2824 18.0612C10.2635 18.0544 10.2444 18.0475 10.2253 18.0407C10.1019 17.9973 9.97997 17.9516 9.85862 17.9047C9.82435 17.891 9.79008 17.8779 9.75582 17.8642C9.62276 17.8117 9.49056 17.7568 9.36006 17.6997C9.33321 17.6883 9.30752 17.6763 9.28096 17.6649C9.16874 17.6141 9.05766 17.5627 8.94716 17.5095C8.91518 17.4941 8.8832 17.4793 8.85064 17.4633C8.76386 17.421 8.67801 17.3758 8.5924 17.3318C8.53509 17.3017 8.47684 17.2731 8.42 17.2415C8.31544 17.1856 8.21275 17.1274 8.11053 17.068C8.07591 17.0486 8.04082 17.0298 8.00597 17.0097C7.87006 16.9297 7.73579 16.8469 7.60292 16.7629C7.5662 16.7395 7.53041 16.7145 7.49415 16.6904C7.39778 16.6282 7.30187 16.5648 7.20737 16.4998C7.17602 16.4785 7.14585 16.4558 7.11497 16.4348C7.02374 16.3702 6.93345 16.3049 6.84386 16.2387C6.80316 16.2086 6.76316 16.1781 6.72363 16.148C6.64152 16.085 6.55988 16.0217 6.47895 15.9566C6.4424 15.9275 6.40585 15.8984 6.36987 15.8692C6.26707 15.7847 6.16542 15.6996 6.06519 15.6123C6.05464 15.6031 6.0432 15.594 6.03178 15.5843C5.92328 15.4889 5.81677 15.3913 5.71141 15.293C5.68085 15.2639 5.65116 15.2353 5.62118 15.2062C5.54322 15.132 5.46641 15.0572 5.39103 14.9806C5.36076 14.9504 5.33049 14.9207 5.30079 14.8904C5.20485 14.7922 5.11062 14.6928 5.01838 14.5917C5.01382 14.5866 5.00897 14.582 5.00441 14.5769C4.90675 14.4701 4.81138 14.361 4.718 14.2508C4.69259 14.2205 4.66803 14.1914 4.6429 14.1617C4.57323 14.0778 4.50413 13.9927 4.43674 13.907C4.41147 13.8761 4.38621 13.8445 4.36118 13.8127C4.28001 13.7075 4.20071 13.6024 4.12305 13.4958C1.97515 10.566 1.20352 6.52502 2.92024 3.20642" fill="#0868AC"/>
<path d="M7.45078 2.77567C6.04077 4.80475 6.11728 7.52094 7.21721 9.6669C7.40167 10.0267 7.60897 10.3756 7.84083 10.708C8.05213 11.0107 8.28628 11.371 8.56668 11.6143C8.66833 11.7263 8.77456 11.8353 8.88305 11.9427C8.91045 11.9707 8.93845 11.9975 8.96643 12.0249C9.0718 12.1272 9.17888 12.2277 9.28966 12.3253C9.29422 12.3287 9.29823 12.3333 9.30279 12.3368L9.30592 12.3397C9.42842 12.4471 9.5549 12.5504 9.68342 12.6521C9.71198 12.6737 9.74024 12.6966 9.76908 12.7189C9.89786 12.8177 10.0292 12.9148 10.164 13.0073C10.168 13.0102 10.1714 13.013 10.1754 13.0158C10.2348 13.057 10.2953 13.0952 10.3556 13.1346C10.3844 13.1535 10.4118 13.1735 10.441 13.1912C10.5372 13.2528 10.6346 13.3128 10.7336 13.3705C10.7477 13.379 10.7613 13.3865 10.7751 13.3945C10.8604 13.4436 10.9469 13.4921 11.0338 13.5389C11.064 13.5561 11.0949 13.5709 11.1257 13.5869C11.1857 13.6183 11.2456 13.6503 11.3067 13.6806C11.3159 13.6851 11.3253 13.6891 11.3341 13.6932C11.4584 13.7543 11.5837 13.8131 11.7116 13.8691C11.739 13.8811 11.7673 13.8919 11.795 13.9033C11.8972 13.9467 12.0006 13.989 12.1045 14.029C12.1485 14.0455 12.1931 14.0615 12.237 14.0775C12.3313 14.1123 12.4258 14.1443 12.5211 14.1763C12.5643 14.19 12.6065 14.2043 12.6496 14.2174C12.7853 14.2597 12.9192 14.3128 13.0605 14.3362C20.3408 15.5423 22.0215 9.9371 22.0215 9.9371C20.5064 12.1193 17.5724 13.1603 14.4414 12.3477C14.3023 12.3111 14.1652 12.2711 14.029 12.2283C13.9873 12.2157 13.9465 12.2021 13.9051 12.1883C13.8083 12.1569 13.7121 12.1238 13.6167 12.089C13.573 12.073 13.5293 12.057 13.4865 12.0404C13.382 12.0004 13.2786 11.9588 13.1761 11.9154C13.1481 11.9034 13.1199 11.8925 13.0924 11.8799C12.964 11.824 12.8375 11.7652 12.7127 11.7035C12.6484 11.6721 12.5853 11.6389 12.5222 11.6064C12.4857 11.5876 12.4488 11.5687 12.4123 11.5499C12.3312 11.5059 12.2507 11.4602 12.1713 11.4139C12.1524 11.4031 12.1327 11.3928 12.1136 11.3814C12.0151 11.3237 11.918 11.2643 11.8218 11.2032C11.7921 11.1844 11.7635 11.1638 11.7338 11.1444C11.6704 11.1033 11.607 11.0616 11.5448 11.0193C11.4106 10.9268 11.2801 10.8297 11.1513 10.7315C11.1216 10.7081 11.0919 10.6852 11.0628 10.6618C9.69227 9.5797 8.60595 8.1011 8.08946 6.42438C7.54817 4.68543 7.6649 2.73339 8.60268 1.14929" fill="#0868AC"/>
<path d="M12.5411 1.01169C11.7099 2.23496 11.6282 3.75414 12.205 5.10525C12.8132 6.53927 14.0596 7.66432 15.5142 8.1977C15.5742 8.2199 15.6342 8.2399 15.695 8.2605C15.7215 8.2685 15.7478 8.2776 15.7747 8.2856C15.8603 8.3124 15.9454 8.3438 16.0339 8.3604C20.0538 9.1371 21.1441 6.29762 21.4344 5.8797C20.4793 7.25488 18.8742 7.58496 16.9048 7.10697C16.7492 7.06908 16.5783 7.01294 16.4283 6.95984C16.236 6.8913 16.0466 6.81317 15.8625 6.72475C15.5128 6.5568 15.1794 6.35282 14.8704 6.11937C13.1081 4.78229 12.0133 2.23142 13.1633 0.153992" fill="#0868AC"/>
</svg>
